<svg xmlns="http://www.w3.org/2000/svg" version="1.1" xmlns:xlink="http://www.w3.org/1999/xlink" width="512" height="512" x="0" y="0" viewBox="0 0 512 512" style="enable-background:new 0 0 512 512" xml:space="preserve" class=""><g><path fill="#4ab8f7" d="M30 256C30 131.383 131.383 30 256 30c49.915 0 97.352 16.087 136.416 45.785L365.4 80.063c-8.182 1.296-13.765 8.979-12.469 17.162 1.17 7.388 7.547 12.656 14.797 12.656.78 0 1.57-.061 2.365-.187l58.666-9.292c8.182-1.296 13.765-8.979 12.469-17.162l-9.292-58.666c-1.296-8.183-8.978-13.76-17.162-12.469-8.182 1.296-13.765 8.979-12.469 17.162l2.962 18.702C362.049 16.821 310.321 0 256 0 187.62 0 123.333 26.628 74.98 74.98 26.629 123.333 0 187.62 0 256c0 43.41 11.067 86.302 32.006 124.039 2.74 4.938 7.855 7.725 13.13 7.725 2.462 0 4.958-.607 7.264-1.887 7.244-4.02 9.858-13.15 5.838-20.394C39.765 332.188 30 294.33 30 256zM479.416 130.927c-4.053-7.225-13.197-9.798-20.42-5.743-7.225 4.053-9.797 13.195-5.744 20.42C472.059 179.131 482 217.306 482 256c0 124.617-101.383 226-226 226-49.916 0-97.352-16.087-136.416-45.785l27.016-4.279c8.182-1.296 13.765-8.979 12.469-17.162-1.296-8.182-8.977-13.764-17.162-12.469l-58.666 9.292c-8.182 1.296-13.765 8.979-12.469 17.162l9.292 58.666c1.17 7.388 7.547 12.655 14.797 12.655.78 0 1.57-.061 2.365-.187 8.182-1.296 13.765-8.979 12.469-17.162l-2.962-18.703C149.95 495.179 201.679 512 256 512c68.38 0 132.667-26.628 181.02-74.98S512 324.38 512 256c0-43.823-11.267-87.073-32.584-125.073z" opacity="1" data-original="#4ab8f7" class=""></path><path fill="#636978" d="M405.11 297.36c8.284 0 15-6.716 15-15v-52.72c0-8.284-6.716-15-15-15h-23.154a131.122 131.122 0 0 0-7.654-18.448l16.385-16.385c5.858-5.858 5.858-15.355 0-21.213l-37.28-37.28c-5.857-5.858-15.355-5.858-21.213 0l-16.385 16.385a131.122 131.122 0 0 0-18.448-7.654V106.89c0-8.284-6.716-15-15-15h-52.72c-8.284 0-15 6.716-15 15v23.154a131.122 131.122 0 0 0-18.448 7.654l-16.385-16.385c-5.857-5.858-15.355-5.858-21.213 0l-37.28 37.28c-5.858 5.858-5.858 15.355 0 21.213l16.385 16.385a131.122 131.122 0 0 0-7.654 18.448H106.89c-8.284 0-15 6.716-15 15v52.72c0 8.284 6.716 15 15 15h23.154a131.122 131.122 0 0 0 7.654 18.448l-16.385 16.385c-5.858 5.858-5.858 15.355 0 21.213l37.28 37.28c5.857 5.858 15.355 5.858 21.213 0l16.388-16.388a131.527 131.527 0 0 0 18.445 7.644v23.167c0 8.284 6.716 15 15 15h52.72c8.284 0 15-6.716 15-15v-23.167a131.407 131.407 0 0 0 18.445-7.644l16.388 16.388c5.857 5.858 15.355 5.858 21.213 0l37.28-37.28c5.858-5.858 5.858-15.355 0-21.213L374.3 315.807a131.122 131.122 0 0 0 7.654-18.448h23.156zM256 298c-23.2 0-42-18.8-42-42s18.8-42 42-42 42 18.8 42 42-18.8 42-42 42z" opacity="1" data-original="#636978" class=""></path><path fill="#4a7aff" d="M437.02 437.02C485.372 388.667 512 324.38 512 256c0-43.823-11.267-87.073-32.584-125.073-4.053-7.225-13.197-9.798-20.42-5.743-7.225 4.053-9.797 13.195-5.744 20.42C472.059 179.131 482 217.306 482 256c0 124.617-101.383 226-226 226v30c68.38 0 132.667-26.628 181.02-74.98z" opacity="1" data-original="#4a7aff"></path><path fill="#414952" d="M405.11 214.64h-23.154a131.122 131.122 0 0 0-7.654-18.448l16.385-16.385c5.858-5.858 5.858-15.355 0-21.213l-37.28-37.28c-5.857-5.858-15.355-5.858-21.213 0l-16.385 16.385a131.122 131.122 0 0 0-18.448-7.654V106.89c0-8.284-6.716-15-15-15H256V214c23.2 0 42 18.8 42 42s-18.8 42-42 42v122.11h26.36c8.284 0 15-6.716 15-15v-23.167a131.407 131.407 0 0 0 18.445-7.644l16.388 16.388c5.857 5.858 15.355 5.858 21.213 0l37.28-37.28c5.858-5.858 5.858-15.355 0-21.213l-16.385-16.385a131.122 131.122 0 0 0 7.654-18.448h23.154c8.284 0 15-6.716 15-15v-52.72c.001-8.285-6.715-15.001-14.999-15.001z" opacity="1" data-original="#414952" class=""></path><path fill="#4a7aff" d="M392.416 75.785 365.4 80.063c-8.182 1.296-13.765 8.979-12.469 17.162 1.17 7.388 7.547 12.656 14.797 12.656.78 0 1.57-.061 2.365-.187l58.666-9.292c8.182-1.296 13.765-8.979 12.469-17.162l-9.292-58.666c-1.296-8.183-8.978-13.76-17.162-12.469-8.182 1.296-13.765 8.979-12.469 17.162l2.962 18.702C362.049 16.821 310.321 0 256 0v30c49.915 0 97.352 16.087 136.416 45.785z" opacity="1" data-original="#4a7aff"></path></g></svg>